<?xml version="1.0" encoding="utf-8"?>


<!-- The icon can be used freely in both personal and commercial projects with no attribution required, but always appreciated. 
You may NOT sub-license, resell, rent, redistribute or otherwise transfer the icon without express written permission from iconmonstr.com -->


<!DOCTYPE svg PUBLIC "-//W3C//DTD SVG 1.1//EN" "http://www.w3.org/Graphics/SVG/1.1/DTD/svg11.dtd">

<svg version="1.1" xmlns="http://www.w3.org/2000/svg" xmlns:xlink="http://www.w3.org/1999/xlink" x="0px" y="0px"

	 width="512px" height="512px" viewBox="0 0 512 512" enable-background="new 0 0 512 512" xml:space="preserve">

<path id="behance-square-rounded-icon" d="M194.994,234.796h-43.533v-39.495h38.963c8.579,0,15.633,0.932,21.168,2.796

	c6.413,2.673,9.619,8.182,9.619,16.527c0,7.533-2.426,12.779-7.275,15.735C209.086,233.316,202.771,234.796,194.994,234.796z

	 M358.939,243.031c-5.523-4.761-12.369-7.143-20.544-7.143c-8.888,0-15.776,2.527-20.672,7.569

	c-4.896,5.046-7.968,11.878-9.225,20.503h59.665C367.533,254.765,364.459,247.791,358.939,243.031z M213.447,267.483

	c-4.248-1.944-10.212-2.956-17.9-3.039h-44.086V312.2h43.486c7.766,0,13.812-1.051,18.139-3.159

	c7.847-3.888,11.771-11.341,11.771-22.358C224.857,277.366,221.053,270.966,213.447,267.483z M411.945,50c27.614,0,50,22.386,50,50

	v312c0,27.614-22.386,50-50,50h-312c-27.614,0-50-22.386-50-50V100c0-27.614,22.386-50,50-50H411.945z M297.215,192.574h77.826

	v-18.09h-77.826V192.574z M262.65,289.234c0-10.288-2.326-19.038-6.979-26.247c-4.652-7.209-11.551-12.477-20.691-15.798

	c6.019-3.079,10.57-6.479,13.663-10.207c5.528-6.643,8.296-15.433,8.296-26.369c0-10.613-2.742-19.726-8.223-27.341

	c-9.107-12.395-24.582-18.755-46.421-19.079h-86.562V343.31h80.707c9.1,0,17.537-0.809,25.311-2.43

	c7.771-1.619,14.518-4.617,20.238-8.992c5.074-3.808,9.301-8.505,12.685-14.096C259.99,309.366,262.65,299.847,262.65,289.234z

	 M402.975,260.517c-1.609-10.387-5.128-19.514-10.551-27.381c-6.019-8.926-13.651-15.457-22.891-19.596

	c-9.236-4.139-19.624-6.208-31.147-6.208c-19.413,0-35.204,6.124-47.366,18.366c-12.166,12.244-18.248,29.839-18.248,52.782

	c0,24.49,6.738,42.164,20.214,53.03c13.475,10.864,29.026,16.297,46.654,16.297c21.355,0,37.966-6.44,49.833-19.321

	c7.625-8.104,11.904-16.082,12.838-23.936h-35.359c-2.062,3.884-4.438,6.924-7.128,9.109c-4.932,4.053-11.341,6.076-19.229,6.076

	c-7.443,0-13.805-1.66-19.094-4.984c-8.697-5.346-13.315-14.66-13.852-27.947h96.469

	C404.287,275.364,403.908,266.603,402.975,260.517z"/>

</svg>

