<svg xmlns="http://www.w3.org/2000/svg" width="512" height="512" viewBox="0 0 512 512"><path d="M412 50H100c-27.614 0-50 22.386-50 50v312c0 27.614 22.386 50 50 50h312c27.614 0 50-22.386 50-50V100c0-27.614-22.386-50-50-50zm-40.058 157.125c3.553 79.059-55.408 167.203-159.768 167.203-31.743 0-61.289-9.305-86.164-25.253 29.821 3.515 59.586-4.758 83.218-23.278-24.596-.453-45.356-16.703-52.508-39.035a56.312 56.312 0 0 0 25.383-.962c-27.03-5.433-45.692-29.784-45.083-55.826a55.968 55.968 0 0 0 25.46 7.032c-25.034-16.73-32.12-49.786-17.396-75.045 27.723 34.006 69.143 56.385 115.857 58.729-8.199-35.16 18.474-69.019 54.755-69.019 16.168 0 30.776 6.825 41.029 17.75a112.533 112.533 0 0 0 35.694-13.639c-4.197 13.126-13.11 24.141-24.715 31.098a112.279 112.279 0 0 0 32.284-8.851c-7.534 11.272-17.062 21.172-28.046 29.096z"/></svg>