<svg xmlns="http://www.w3.org/2000/svg" width="512" height="512" viewBox="0 0 512 512"><path d="M194.994 234.796h-43.533v-39.495h38.963c8.579 0 15.633.932 21.168 2.796 6.413 2.673 9.619 8.182 9.619 16.527 0 7.533-2.426 12.779-7.275 15.735-4.85 2.957-11.165 4.437-18.942 4.437zm163.945 8.235c-5.523-4.761-12.369-7.143-20.544-7.143-8.888 0-15.776 2.527-20.672 7.569-4.896 5.046-7.968 11.878-9.225 20.503h59.665c-.63-9.195-3.704-16.169-9.224-20.929zm-145.492 24.452c-4.248-1.944-10.212-2.956-17.9-3.039h-44.086V312.2h43.486c7.766 0 13.812-1.051 18.139-3.159 7.847-3.888 11.771-11.341 11.771-22.358 0-9.317-3.804-15.717-11.41-19.2zM411.945 50c27.614 0 50 22.386 50 50v312c0 27.614-22.386 50-50 50h-312c-27.614 0-50-22.386-50-50V100c0-27.614 22.386-50 50-50h312zm-114.73 142.574h77.826v-18.09h-77.826v18.09zm-34.565 96.66c0-10.288-2.326-19.038-6.979-26.247-4.652-7.209-11.551-12.477-20.691-15.798 6.019-3.079 10.57-6.479 13.663-10.207 5.528-6.643 8.296-15.433 8.296-26.369 0-10.613-2.742-19.726-8.223-27.341-9.107-12.395-24.582-18.755-46.421-19.079h-86.562V343.31h80.707c9.1 0 17.537-.809 25.311-2.43 7.771-1.619 14.518-4.617 20.238-8.992 5.074-3.808 9.301-8.505 12.685-14.096 5.316-8.426 7.976-17.945 7.976-28.558zm140.325-28.717c-1.609-10.387-5.128-19.514-10.551-27.381-6.019-8.926-13.651-15.457-22.891-19.596-9.236-4.139-19.624-6.208-31.147-6.208-19.413 0-35.204 6.124-47.366 18.366-12.166 12.244-18.248 29.839-18.248 52.782 0 24.49 6.738 42.164 20.214 53.03 13.475 10.864 29.026 16.297 46.654 16.297 21.355 0 37.966-6.44 49.833-19.321 7.625-8.104 11.904-16.082 12.838-23.936h-35.359c-2.062 3.884-4.438 6.924-7.128 9.109-4.932 4.053-11.341 6.076-19.229 6.076-7.443 0-13.805-1.66-19.094-4.984-8.697-5.346-13.315-14.66-13.852-27.947h96.469c.169-11.44-.21-20.201-1.143-26.287z"/></svg>