<svg xmlns="http://www.w3.org/2000/svg" width="512" height="512" viewBox="0 0 512 512"><path d="M412 50H100c-27.614 0-50 22.386-50 50v312c0 27.614 22.386 50 50 50h312c27.614 0 50-22.386 50-50V100c0-27.614-22.386-50-50-50zM301.672 396.377c-7.311 1.408-9.621-3.086-9.621-6.924v-39.57c0-13.448-4.73-22.237-9.895-26.709 32.107-3.567 65.846-15.76 65.846-71.149 0-15.749-5.598-28.61-14.846-38.703 1.49-3.638 6.432-18.307-1.42-38.162 0 0-12.086-3.873-39.617 14.786-11.512-3.192-23.867-4.799-36.119-4.858-12.252.059-24.586 1.667-36.098 4.858-27.553-18.659-39.664-14.786-39.664-14.786-7.816 19.855-2.887 34.524-1.385 38.162-9.225 10.092-14.857 22.954-14.857 38.703 0 55.26 33.656 67.629 65.693 71.267-4.131 3.603-7.863 9.962-9.152 19.28-8.24 3.686-29.104 10.057-41.965-11.982 0 0-7.627-13.846-22.109-14.867 0 0-14.07-.176-.986 8.766 0 0 9.459 4.437 16.006 21.111 0 0 8.357 25.735 48.467 17.004v26.85c0 3.814-2.324 8.273-9.529 6.936-57.303-19.058-98.619-73.121-98.619-136.83 0-79.634 64.564-144.2 144.199-144.2 79.633 0 144.199 64.566 144.199 144.2-.001 63.696-41.261 117.725-98.528 136.817z"/></svg>