<svg xmlns="http://www.w3.org/2000/svg" width="512" height="512" viewBox="0 0 512 512"><path d="M209.035 235.669c-22.34-.673-43.568-21.164-47.425-50.498-3.858-29.341 11.122-51.789 33.458-51.124 22.329.671 41.439 24.737 45.294 54.07 3.853 29.338-8.999 48.216-31.327 47.552zm-4.583 60.033c-33.279-.366-61.481 21.029-61.481 45.829 0 25.309 24.033 46.375 57.314 46.375 42.547 0 63.102-19.773 63.102-45.082 0-24.126-22.009-47.122-58.935-47.122zM461.945 101v312c0 27.614-22.386 50-50 50h-312c-27.614 0-50-22.386-50-50V101c0-27.614 22.386-50 50-50h312c27.615 0 50 22.386 50 50zM292.054 339.882c0-23.364-8.724-38.63-35.119-58.406-26.771-19.524-33.313-30.555-7.761-50.31 14.398-11.133 24.488-25.973 24.488-44.295 0-19.961-8.162-38.071-23.51-46.864h21.755l18.521-19.438h-82.879c-51.736 0-77.105 31.01-77.105 65.122 0 34.861 23.915 62.316 70.615 62.316-7.24 14.617-4.332 28.117 7.514 37.771-79.759 0-96.826 34.998-96.826 61.957 0 34.932 40.154 55.699 88.303 55.699 65.835 0 92.004-34.891 92.004-63.552zm108.092-177.256H361.91v-38.235h-19.117v38.235h-38.235v19.117h38.235v38.235h19.117v-38.235h38.235v-19.117z"/></svg>