<svg xmlns="http://www.w3.org/2000/svg" width="512" height="512" viewBox="0 0 512 512"><path d="M411.945 50h-312c-27.614 0-50 22.386-50 50v312c0 27.614 22.386 50 50 50h312c27.614 0 50-22.386 50-50V100c0-27.614-22.385-50-50-50zM180.996 392.99h-56.537V210.336h56.537V392.99zm-28.539-206.573c-18.465 0-33.432-15.09-33.432-33.703 0-18.614 14.967-33.704 33.432-33.704 18.463 0 33.432 15.09 33.432 33.704 0 18.613-14.969 33.703-33.432 33.703zM392.865 392.99h-56.262v-95.881c0-26.296-9.988-40.974-30.781-40.974-22.629 0-34.453 15.289-34.453 40.974v95.881h-54.223V210.336h54.223v24.599s16.309-30.171 55.041-30.171 66.455 23.648 66.455 72.572V392.99z"/></svg>