<svg xmlns="http://www.w3.org/2000/svg" width="512" height="512" viewBox="0 0 512 512"><path d="M412 50H100c-27.614 0-50 22.386-50 50v312c0 27.614 22.386 50 50 50h312c27.614 0 50-22.386 50-50V100c0-27.614-22.386-50-50-50zM151.005 400.2c-21.554 0-39.026-17.472-39.026-39.026 0-21.553 17.473-39.024 39.026-39.024s39.024 17.472 39.024 39.024c0 21.555-17.47 39.026-39.024 39.026zm93.263 0c-.747-72.618-59.672-131.542-132.289-132.288v-57.815c104.663.747 189.355 85.44 190.104 190.103h-57.815zm97.933 0c-.174-61.521-24.205-119.335-67.728-162.856-43.436-43.437-101.108-67.456-162.495-67.723V111.8c158.955.556 287.681 129.401 288.043 288.4h-57.82z"/></svg>